<mxfile host="app.diagrams.net" modified="2023-09-25T15:44:43.720Z" agent="Mozilla/5.0 (Windows NT 10.0; Win64; x64) AppleWebKit/537.36 (KHTML, like Gecko) Chrome/116.0.0.0 Safari/537.36" version="21.8.2" etag="got5BfH1ebc0Ok0Lfd39" type="github">
  <diagram name="Page-1" id="4Hk-kkdW_RhmJmPH-lhJ">
    <mxGraphModel>
      <root>
        <mxCell id="0" />
        <mxCell id="1" parent="0" />
      </root>
    </mxGraphModel>
  </diagram>
</mxfile>
